<?xml version="1.0" encoding="utf-8"?>
<!-- Generator: Adobe Illustrator 24.0.0, SVG Export Plug-In . SVG Version: 6.00 Build 0)  -->
<svg version="1.1" id="Layer_1" xmlns="http://www.w3.org/2000/svg" xmlns:xlink="http://www.w3.org/1999/xlink" x="0px" y="0px"
	 viewBox="0 0 512 512" style="enable-background:new 0 0 512 512;" xml:space="preserve">
<style type="text/css">
	.st0{fill:#C0B27F;}
	.st1{fill:#B4A366;}
	.st2{fill:#B5A56A;}
	.st3{fill:#FE3A24;}
	.st4{fill:#FE3924;}
	.st5{fill:#FE4D3A;}
	.st6{fill:#FE3F2B;}
	.st7{fill:#FE5947;}
	.st8{fill:#FE3B26;}
	.st9{fill:#FE3923;}
	.st10{fill:#FE3925;}
	.st11{fill:#AD9E66;}
	.st12{fill:#B0A06A;}
	.st13{fill:#FFFFFF;}
	.st14{fill:#CD6B30;}
	.st15{fill:#B1B91B;}
	.st16{fill:#B1B91A;}
	.st17{fill:#B1B81D;}
	.st18{fill:#D8DC93;}
	.st19{fill:#ACB31C;}
	.st20{fill:none;}
	.st21{font-family:'ArialMT';}
	.st22{font-size:22.0149px;}
	.st23{fill:#C54237;}
	.st24{font-family:'Helvetica';}
	.st25{font-size:36.6916px;}
	.st26{fill:#FEFEFE;}
</style>
<path class="st0" d="M143.95,422.31c-0.86-1.63-2.53-1.71-4.05-2.04c6.15-1.78,25.37-10.7,32.29-8.27
	C167.77,415.1,149.2,421.35,143.95,422.31z"/>
<g>
	<path class="st1" d="M90.94,363.78c-3.61,12.51-3.69,25.43-0.83,37.76c3.61,15.59,20.25,23.12,40.8,20.2
		c3.01-0.42,5.98-0.99,8.97-1.5c1.96-0.51,4.2-1.61,4.05,2.05c-14.14,5.56-28.33,10.95-43.96,7.03
		c-19.12-4.81-32.91-16.31-34.97-37.65c-1.25-12.9,0.29-32,4.27-43.64c3.45,4.51,5.96,9.39,10.73,12.05
		c2.31,1.98,5.08,0.68,7.61,1.05C89.3,361.38,91.41,360.96,90.94,363.78z"/>
	<path class="st2" d="M90.94,363.78c-2.77-3.78-8.22,0.33-10.92-3.71c17.26-1.41,31,6.77,44.23,16.27
		c7.39,5.32,14.86,10.49,22.62,15.3c12.93,8.04,26.11,8.97,40.05,3.39c1.8-0.72,3.65-2.51,6.2-0.66c-2.51,5.47-8.79,6-12.64,9.58
		c-17.15,4.05-32.11,1.41-44.73-12.33c-7.82-8.49-17.52-15.28-29.06-17.94C100,372.19,96.71,366.24,90.94,363.78z"/>
</g>
<g>
	<path class="st3" d="M381.53,33.14c-1.36,7.21-5.98,1.85-8.29,1.5c-12.33-1.87-19.43,3.23-20.18,15.78
		c-0.06,0.94,0.73,1.98,2.88,2.99c1.45,0.86,3.21,1.28,4.44,2.44c2.09,1.98,1.87,3.23-1.3,3.14c-7.96-2.13-11.69,1.93-15.17,8.71
		c-10.11,19.67-10.42,19.48,10.84,25.85c7.08,2.13,14.13,4.35,22.16,6.82c-2.77,3.38-5.27,2.44-7.28,1.89
		c-12-3.21-23.92-6.79-35.96-9.85c-5.27-1.34-5.91-4.24-4.62-8.77c6.29-22.18,12.62-44.32,18.6-66.58c1.25-4.66,3.06-5.89,7.49-4.24
		c6.22,2.31,13.12,2.29,19.08,5.54c4.73,2.04,9.83,2.59,14.81,3.65l-0.11-0.06c0.83,1.14,2.05,1.06,3.27,1.14
		c3.01,0.2,3.32,2.35,2.94,4.59c-0.53,3.05-2.75,2.61-4.95,2.05C386.47,28.83,383.5,29.73,381.53,33.14z"/>
	<path class="st4" d="M430.9,126.04c0.07,2.04-1.19,2.5-3.39,1.47c-14.02-6.48-28.05-12.95-42.05-19.45
		c-2.94-1.36-1.56-3.28-0.68-5.28c9.74-22.16,19.46-44.32,29.11-66.54c1.39-3.23,3.01-3.54,6.33-2.35
		c17.96,6.46,17.96,6.31,7.08,22.29c-9.72,14.27-19.15,28.77-29.11,42.87c-3.65,5.17-2.64,8.13,2.62,10.59
		c8.51,3.96,17.04,7.89,25.5,11.96C428.08,122.46,430.7,122.56,430.9,126.04z"/>
	<path class="st3" d="M145.29,75.26c1.3,3.05,2.24,6.33,3.94,9.12c5.05,8.18,12.29,10.48,19.46,6.53
		c6.97-3.82,9.91-12.53,6.31-20.38c-7.17-15.61-14.33-31.26-22.18-46.54c-3.3-6.44-2.57-8.18,4.71-9.7
		c15.37-3.21,15.26-3.74,17.67,12.68c0.59,5.05,0.62,5.27,1.52,9.23c0.09,0.39,0.15,0.81,0.18,1.19c0.79,8.04,3.3,15.69,5.39,23.43
		c0.84,4.44,0.84,4.44,2.05,8.9c2.7,16.02-5.98,23.7-19.04,27.1c-11.23,2.92-19.32-3.78-21.48-15.87
		C143.39,78.8,141.46,76.31,145.29,75.26z"/>
	<path class="st5" d="M359.08,59.01c2.37-3.78-3.58-2.88-3.12-5.58c7.93,0.28,14.84,4.4,22.42,5.96c1.71,0.35,3.69,1.32,3.06,3.67
		c-0.62,2.37-2.61,2.02-4.4,1.5C366.65,61.57,370.32,63.41,359.08,59.01z"/>
	<path class="st6" d="M381.53,33.14c1.65-3.83,2.38-9.19,8.7-4.92c1.32,0.9,3.12,1.21,3.63-0.84c0.97-4.04-4.2-2.75-4.97-5.39
		c5.3,1.08,5.3-0.75,7.39,5.08c1.89,5.3-4.15,3.98-7.15,4.16C386.43,31.38,383.59,30.61,381.53,33.14z"/>
	<path class="st7" d="M280.98,49.39c5.47-3.12,10.97-2.4,16.47-0.13C291.97,49.32,286.46,49.36,280.98,49.39z"/>
	<path class="st6" d="M394.17,23.05c-5.32,0.35-17.7-1.74-22.01-5.5C377.46,18.54,386.83,21.21,394.17,23.05z"/>
	<path class="st8" d="M145.29,75.26c-1.72,1.58-1.21,3.72-1.45,5.69c-0.61-1.94-1.34-3.87-1.74-5.85c-0.13-0.61,0.59-1.94,1.01-1.98
		C144.43,72.97,145.13,73.96,145.29,75.26z"/>
	<path class="st4" d="M280.98,49.39c-3.56,9.98-7.08,19.96-10.68,29.9c-0.88,2.46-1.34,6.29-4.62,5.72
		c-3.56-0.62-2.33-4.2-2.07-6.88c2.24-23.24,4.62-46.47,6.49-69.75c0.42-5.25,2.2-6.59,7.17-6.44c10.33,0.31,20.62,0.2,30.4,4.33
		c15.45,6.51,21.89,21.61,13.81,33.39c-5.76,8.38-14.4,10.42-24.01,9.61C291.95,48.29,286.46,48.05,280.98,49.39z M297.6,45.82
		c6.48-0.53,11.3-3.8,14.92-9.04c1.89-2.73,2.42-5.47,0.22-8.31c-2.75-3.54-19.54-7.71-23.01-5.69c-3.78,2.18-6.92,15.41-5.06,21.26
		C288.74,46.42,291.44,45.06,297.6,45.82z"/>
	<path class="st9" d="M70.37,48.75c-0.07-8.53,9.54-6.88,14.49-10.64c4.64-3.54,6.22,0.72,8.38,3.45
		c14.86,18.79,29.76,37.55,44.54,56.39c1.52,1.94,5.01,4.22,2.18,6.86c-2.97,2.79-5.1-1.3-6.46-2.84
		c-11.1-12.64-22.4-12.6-37.32-5.17c-9.96,4.97-9.21,11.56-10.35,19.34c-0.59,4.04,2.44,11.14-3.32,11.41
		c-4.88,0.24-2.75-6.97-3.3-10.64C75.98,94.73,73.38,72.45,70.37,48.75z M86.66,83.24c0.73,11.48,0.73,11.48,11.12,7.04
		c16.35-6.99,16.49-7.15,2.27-18.82c-3.71-3.05-7.06-9.89-12.14-7.3c-4.29,2.16-0.79,8.97-1.71,13.26
		C86.39,79.63,86.53,81.42,86.66,83.24z"/>
	<path class="st10" d="M252.01,49.47c0.86,13.7-3.93,25.02-14.57,33.74c-9.96,8.16-22.31,7.28-30.97-2.09
		c-14.53-15.7-16.6-46.51-4.29-63.81c13.01-18.29,31.85-17.23,42.58,2.44C249.81,28.99,252.52,38.86,252.01,49.47z M207.76,71
		c2.53,6.42,7.06,10.73,14.07,11.32c7.14,0.59,13.17-2.07,17.17-8.24c4.62-7.12,6.24-14.97,5.82-23.46
		c-0.77-15.7-9.72-26.89-21.89-26.86c-11.03,0.04-18.75,11.03-18.79,28.53C203.63,57.63,205.16,64.42,207.76,71z"/>
</g>
<g>
	<path class="st11" d="M441.3,348.15c-15.96,21.04-17.96,48.98-36.01,68.8c-17.76,19.5-50.82,12.71-73.49-1.32
		c27.04-2.11,47.57,6.93,55.13-20.55c2.77-10.11,9.56-18.55,12.4-28.14c2.83-9.5,7.5-10.44,15.67-10.64
		C424.06,356.06,432.5,352.19,441.3,348.15z"/>
	<path class="st12" d="M407.01,355.11c-8.49,8.66-25.12,14.46-34.55,15.58c-11.81,1.41-24.09-1.61-35.5,4.38
		C353.52,357.29,384.47,359.9,407.01,355.11z"/>
</g>
<path class="st1" d="M225.39,182.66l5.5-9.17h5.5l1.83-16.51l1.83-7.34l5.5-7.34l1.83-11.01l5.5-7.34h3.67l1.83,7.34l5.5,16.51
	c0,0,5.5,25.68,16.51,27.52s56.87,0,66.04,5.5c9.17,5.5,22.01,9.17,40.36,34.86c18.35,25.68,7.34,64.21,7.34,64.21
	s-25.68-69.71-47.7-78.89c-22.01-9.17-5.5-11.01-51.37-14.68c0,0,33.02,9.17,47.7,22.01s36.69,33.02,45.86,73.38
	c9.17,40.36-33.02,64.21-33.02,64.21s-3.67,1.83-11.01,1.83c-7.34,0,1.83-7.34,1.83-7.34l11.01-5.5c0,0,25.68-22.01,12.84-53.2
	s-75.22-69.71-75.22-69.71s27.52,31.19,31.19,53.2c3.67,22.01,11.01,42.2,11.01,42.2l5.5,12.84c0,0,3.67,9.17,1.83,16.51
	c-1.83,7.34-3.67,7.34-3.67,7.34l-3.67-11.01c0,0-5.5-23.85-5.5-29.35c0-5.5-20.18-53.2-20.18-53.2s-33.02-44.03-36.69-47.7
	c-3.67-3.67,7.34,18.35,7.34,18.35s20.18,27.52,27.52,45.86s33.02,71.55,22.01,82.56c-11.01,11.01-16.51,23.85-27.52,20.18
	c-11.01-3.67,0-9.17,0-9.17l9.17-14.68c0,0,5.5-44.03,0-55.04c-5.5-11.01-45.86-95.4-55.04-106.41l3.67,27.52l5.5,36.69l1.83,64.21
	c0,0,3.67,49.53,14.68,55.04c0,0,1.83,5.5-7.34,0c-9.17-5.5-9.17-33.02-9.17-33.02l-5.5-40.36c0,0-11.01-44.03-11.01-47.7
	c0-3.67,0-34.86,0-34.86s-7.34,11.01-7.34,14.68s-1.83,29.35,0,38.53c1.83,9.17,14.68,34.86,14.68,44.03s0,40.36,0,40.36l7.34,14.68
	l-23.85,18.35l7.34-18.35c0,0,3.67-62.38-1.83-67.88c-5.5-5.5-5.5-20.18-5.5-20.18l-1.83-16.51v-20.18c0,0-38.53,69.71-38.53,80.72
	c0,11.01-1.83,31.19,20.18,58.71c0,0-3.67,18.35-27.52-3.67c-23.85-22.01-18.35-51.37-18.35-51.37l14.68-44.03l38.53-69.71
	c0,0-1.83-3.67-3.67-1.83s-16.51,18.35-27.52,45.86c0,0-20.18,36.69-20.18,40.36c0,3.67-5.5,14.68-5.5,14.68s-3.67,11.01-3.67,14.68
	s0,36.69,0,36.69s-58.71-23.85-51.37-69.71c7.34-45.86,66.04-77.05,66.04-77.05s-45.86,9.17-64.21,44.03l-1.83,3.67
	c0,0-3.67-12.84,14.68-31.19S181.36,184.49,225.39,182.66z M163.02,303.74c3.67-18.35,20.18-66.04,27.52-77.05
	c7.34-11.01,14.68-18.35,14.68-18.35l-7.34,1.83c0,0-56.87,44.03-64.21,60.54c-7.34,16.51-5.5,27.52-5.5,42.2
	s27.52,31.19,27.52,31.19C155.68,336.76,159.35,322.08,163.02,303.74z"/>
<path class="st13" d="M238.23,156.97c0,0,0,14.68-1.83,18.35c-1.83,3.67-1.83,9.17-1.83,9.17l-1.83,5.5l-1.83,3.67
	c0,0,1.83,5.5,3.67,0c1.83-5.5,3.67-9.17,3.67-9.17v-7.34l1.83-7.34v-12.84C240.07,156.97,240.07,155.14,238.23,156.97z"/>
<path class="st13" d="M243.74,147.8c1.23-1.52,2.44-1.52,3.67,0v56.87c-1.23,1.38-2.44,1.38-3.67,0V147.8z"/>
<path class="st13" d="M249.24,133.12c0,0,3.67,38.53,23.85,60.54l3.67-1.83c0,0-20.18-18.35-23.85-58.71
	C251.63,131.97,250.4,131.82,249.24,133.12z"/>
<path class="st14" d="M304.81,367.64c-3.82,8.42-0.83,13.19,7.8,12.33c1.49-0.15,3.06-1.28,4.38-0.99c3.14,0.72,6.88-6,8.92-0.11
	c1.5,4.38-2.05,8.11-6.18,10.07c-7.6,3.6-15.41,2.81-23.13,0.31c-3.16-1.01-6.22-2.31-9.82-3.67c-0.77,5.67,1.58,10.37,2.72,15.25
	c2.27,9.67-0.61,15.52-8.46,16.99c-7.96,1.49-14.58-3.45-16.4-12.05c-0.73-3.47,0.37-7.26-2.04-11.15
	c-16.36,10.46-33.48,17.06-54.62,10.26c6.48-2.27,12.09-0.13,16.97-2.68c2.66-1.39,6.18-1.83,6.44-5.6
	c0.29-4.35-3.23-5.47-6.48-6.42c-9.04-2.66-18.13-5.16-27.19-7.76c-2.83-0.81-6.11-0.72-7.93-3.71c4.22-1.41,8.55-2.02,12.97-2.11
	c7.01,0.42,13.7,2.88,20.75,3.08c19.96,2.38,38.67-3.16,57.37-8.95c2.97-0.92,4.99-3.34,7.82-4.37c5.01-1.71,9.19-5.83,15.03-5.08
	C306.53,362.98,306.33,365.2,304.81,367.64z"/>
<path class="st15" d="M236.4,173.48c0,0-1.83,1.83-5.5,0l-1.83-1.83l-5.5-1.83l-1.83-3.67v-5.5l5.5-3.67l1.83-1.83l1.83-1.83
	c0,0-12.84-7.34-12.84-11.01c0-3.67,1.83-5.5,1.83-5.5l3.67-1.83c0,0,1.83,0,0-1.83"/>
<g>
	<g>
		<path class="st16" d="M277,171.8c-5.67-3.69-8.9-0.07-13.08-20.33c-2.13-10.31-4.73-13.06-9.17-23.85
			c-3.19,3.91-4.29,1.25-6.7,4.18c-2.04,3.17-3.85,2.27-5.32-0.42c-1.93-3.54-2.55-7.39-2.31-11.41c0.04-0.44,0.09-0.9,0.15-1.34
			c-0.24-3.25-0.02-6.37-1.38-9.7c-2.13-5.28-4.49-11.65,5.65-11.74c3.52-0.04,2.16-3.58,2.95-5.63c1.91-5.05,1.52-13.8,7.3-13.69
			c4.92,0.09,5.91,8.55,7.28,13.96c0.55,2.15-0.73,5.27,2.95,5.6c10.15,0.95,6.42,6.99,4.62,12.35c-0.44,2.64-3.14,5.82,1.76,7.14
			c3.8-3.06,6.46-12.86,12.66-2.11c0.24,0.4,2.16,0,3.25-0.29c6.13-1.71,6.13,2.35,5.17,6.07c-0.79,3.12-2.88,5.91-4.27,8.9
			c-0.75,1.6-2.22,4.37-1.74,4.79c9.7,8.68-0.4,13.19-4.62,17.04c-4.11,3.74-2.46,5.36,0,7.6c4.05,3.69,5.27,7.26,0.81,11.41
			C281.13,171.45,279.14,171.98,277,171.8z"/>
		<path class="st17" d="M238.62,155.41c0.04,0.59,0.13,1.16,0.24,1.72l-0.07,0.07c-1.36,3.17-1.19,6.79-1.65,10.33
			c-0.75,5.96-0.28,8.7-5.38,6.2c-9.69-5.83-10.4-7.98-3.56-16.97c2.86-3.74,0.02-4.24-1.61-6.2c-3.74-4.49-12.48-7.83-3.87-15.69
			c2.02-1.83-1.28-3.47-2.13-5.14c-4.75-9.5-1.32-18,8.6-19.94c6.73-1.32,6.82,6.81,11.36,8.84l0.35,0.55
			C239.28,131.2,240.12,143.38,238.62,155.41z"/>
	</g>
	<path class="st18" d="M271.7,116.91c-0.35,1.49-1.89,2.24-2.48,1.17c-1.5-2.73-1.6-5.72,0.72-8.31
		C270.69,112.12,269.15,115.02,271.7,116.91z"/>
	<path class="st19" d="M238.62,155.41c-0.5-0.35-1.47-0.81-1.41-1.03c2.42-10.68-2.33-21.68,1.6-32.25c0.4-1.1,1.39-1.98,2.11-2.95
		c3.23,2.99,1.38,7.43,3.19,10.99c1.19,2.33,2.09,2.4,3.96,1.63C249.63,139.97,241.65,146.13,238.62,155.41z"/>
</g>
<path id="SVGID_x5F_1_x5F_" class="st20" d="M-7.38,399.58c180.85,145.59,379.52,150.58,524.43-4.49"/>
<text transform="matrix(0.8053 0.5929 -0.5929 0.8053 12.3116 414.8338)" class="st21 st22"> </text>
<text transform="matrix(0.813 0.5822 -0.5822 0.813 17.2311 418.4717)" class="st23 st24 st25"> </text>
<text transform="matrix(0.8295 0.5585 -0.5585 0.8295 25.4605 424.4916)" class="st23 st24 st25">A</text>
<text transform="matrix(0.8451 0.5347 -0.5347 0.8451 45.8234 438.064)" class="st23 st24 st25">j</text>
<text transform="matrix(0.8586 0.5127 -0.5127 0.8586 52.6726 442.4932)" class="st23 st24 st25">o</text>
<text transform="matrix(0.873 0.4877 -0.4877 0.873 70.2306 452.8924)" class="st23 st24 st25"> </text>
<text transform="matrix(0.8825 0.4703 -0.4703 0.8825 79.1288 457.865)" class="st23 st24 st25">f</text>
<text transform="matrix(0.8928 0.4504 -0.4504 0.8928 88.1199 462.6704)" class="st23 st24 st25">r</text>
<text transform="matrix(0.9076 0.4199 -0.4199 0.9076 99.0003 468.2375)" class="st23 st24 st25">e</text>
<text transform="matrix(0.9245 0.3813 -0.3813 0.9245 117.5284 476.7902)" class="st23 st24 st25">s</text>
<text transform="matrix(0.9396 0.3422 -0.3422 0.9396 134.49 483.7889)" class="st23 st24 st25">c</text>
<text transform="matrix(0.9545 0.2981 -0.2981 0.9545 151.7236 490.0934)" class="st23 st24 st25">o</text>
<text transform="matrix(0.9653 0.2613 -0.2613 0.9653 171.2309 496.0854)" class="st23 st24 st25"> </text>
<text transform="matrix(0.9749 0.2227 -0.2227 0.9749 181.048 498.8486)" class="st23 st24 st25">p</text>
<text transform="matrix(0.9857 0.1684 -0.1684 0.9857 200.9451 503.3981)" class="st23 st24 st25">e</text>
<text transform="matrix(0.9917 0.1287 -0.1287 0.9917 221.0807 506.7151)" class="st23 st24 st25">l</text>
<text transform="matrix(0.9961 0.0877 -0.0877 0.9961 229.1525 507.8925)" class="st23 st24 st25">a</text>
<text transform="matrix(0.9996 0.027 -0.027 0.9996 249.4858 509.6849)" class="st23 st24 st25">d</text>
<text transform="matrix(0.9994 -0.0357 0.0357 0.9994 269.8917 510.2386)" class="st23 st24 st25">o</text>
<text transform="matrix(0.9965 -0.0836 0.0836 0.9965 290.2822 509.3892)" class="st23 st24 st25"> </text>
<text transform="matrix(0.9913 -0.1319 0.1319 0.9913 300.4555 508.6617)" class="st23 st24 st25">1</text>
<text transform="matrix(0.9805 -0.1965 0.1965 0.9805 320.6906 505.9695)" class="st23 st24 st25">0</text>
<text transform="matrix(0.9655 -0.2604 0.2604 0.9655 340.7056 501.9566)" class="st23 st24 st25">0</text>
<text transform="matrix(0.9516 -0.3074 0.3074 0.9516 360.3758 496.5223)" class="st23 st24 st25"> </text>
<text transform="matrix(0.9286 -0.3711 0.3711 0.9286 370.2122 493.7417)" class="st23 st24 st25">%</text>
<text transform="matrix(0.902 -0.4318 0.4318 0.902 400.3631 481.2874)" class="st23 st24 st25"> </text>
<text transform="matrix(0.8811 -0.4729 0.4729 0.8811 409.613 476.9885)" class="st23 st24 st25">n</text>
<text transform="matrix(0.8513 -0.5246 0.5246 0.8513 427.5981 467.3314)" class="st23 st24 st25">a</text>
<text transform="matrix(0.8279 -0.5609 0.5609 0.8279 444.9103 456.5312)" class="st23 st24 st25">t</text>
<text transform="matrix(0.8037 -0.595 0.595 0.8037 453.413 450.8987)" class="st23 st24 st25">u</text>
<text transform="matrix(0.7775 -0.6289 0.6289 0.7775 469.7589 438.6815)" class="st23 st24 st25">r</text>
<text transform="matrix(0.7509 -0.6604 0.6604 0.7509 479.3054 431.0656)" class="st23 st24 st25">a</text>
<text transform="matrix(0.7277 -0.6859 0.6859 0.7277 494.5291 417.5356)" class="st23 st24 st25">l</text>
<text transform="matrix(1 0 0 1 -213.0737 -208.1079)" class="st21 st22"> </text>
<path class="st26" d="M219.89-20.98"/>
</svg>
